<svg xmlns="http://www.w3.org/2000/svg" width="435" height="96" viewBox="0 0 435 96"><path d="M0 1.021v1.396h11v90.211H0v1.395h37v-1.395H26V48.021s2.971-.002 3 0c16.277.439 14.772 14.721 15 19.014h1.5V27.026H44c-.682 8.586-.296 18.942-14.885 19.495H26V2.418h13.112c19.656 0 21.888 10.623 21.888 23h1.5V.98L0 1.021zm63.688 58L78 17.541 92 59.02l-28.312.001zM116 92.625L86 1.021h-4L50.037 92.625h-8L42 94.021h28v-1.396h-3c-10.544 0-13.375-4.396-9.667-15.188l5.917-16.834h29.125l10.613 32.021H92v1.396h32v-1.396h-8zm138 0h-10V2.416h10V1.021h-36v1.395h10v44.146h-27V2.416h10V1.021h-36v1.395h10v90.209h-11v1.396h37v-1.396h-10V48.021h27v44.604h-9v1.396h35zm38.963-90.209V.979L257 1.021v1.395h10v90.209h-10v1.396h36v-1.396h-10V2.416zM409 1.021v1.396h1.094c10.825.215 12.823 7.656 12.906 12.604v50l-35-64h-29v1.396h9v90.211h-9v1.395h27v-1.395h-2.977c-11.783 0-11.964-10.377-11.94-14.729V2.416L424 96.021h2V2.416h9V1.021h-26z"/><path d="M325.432 1.479c-15.057 0-19.182 25.26-19.182 46.891s4.113 45.609 19.182 45.609 19.018-23.99 19.018-45.609-3.962-46.891-19.018-46.891zm-23.709 12.435c6.792-8.836 15.783-13.936 23.575-13.936 18.082 0 34.465 21.887 34.465 47.891 0 24.738-15.383 48.109-34.267 48.109-16.682 0-34.362-19.71-34.362-48.236 0-5.93 1.395-21.837 10.589-33.828M157 43.187c7.321 2.909 15.731 6.321 18.388 15.328.704 2.386 1.005 5.088 1.005 7.597 0 15.364-10.978 28.645-27.242 28.645-3.157 0-6.302-.558-9.318-1.609-2.864-1-5.051-1.872-7.739-3.336-2.084-1.137-4.948-2.213-6.882-.121-1.117 1.206-.988 2.732-1.212 4.332h-1.5v-32h1.5c2.387 18.666 12.889 31.105 24.824 31.105 8.466 0 19.271-6.438 19.271-16.221 0-11.386-12.316-17.562-17.915-20.453-6.84-3.531-14.205-5.524-19.979-11.201-7.755-7.621-8.502-21.322-3.83-31.176 1.243-2.623 2.856-5.037 4.784-7.074 1.923-2.033 4.102-3.84 6.562-4.974 1.568-.724 4.7-2.007 10.283-2.007s6.547.717 7.72.994c2.231.527 4.87 1.51 7.13 2.523 1.102.496 1.744.834 3.259 1.109 2.984.342 3.664-2.484 3.891-3.628h1.5v25H170c-.5-7.883-8.754-24.604-22-24.604-9.505 0-19 7.771-19 19.275 0 10.727 8.5 14.746 28 22.496"/></svg>